<mxfile host="app.diagrams.net" modified="2023-09-18T06:08:03.468Z" agent="Mozilla/5.0 (X11; Linux x86_64) AppleWebKit/537.36 (KHTML, like Gecko) Chrome/117.0.0.0 Safari/537.36" version="21.7.5" etag="eI9Gm8lCkc1vzcNsKYbj" type="github">
  <diagram name="Page-1" id="b7YSbotOKKGUyHbOt2u3">
    <mxGraphModel>
      <root>
        <mxCell id="0" />
        <mxCell id="1" parent="0" />
      </root>
    </mxGraphModel>
  </diagram>
</mxfile>
